<svg width="1363" height="163" viewBox="0 0 1363 163" fill="none" xmlns="http://www.w3.org/2000/svg">
<path d="M0 15C0 6.71573 6.71573 0 15 0H37V163H15C6.71573 163 0 156.284 0 148V15Z" fill="#424242"/>
<rect width="1097" height="163" transform="translate(37)" fill="#F0F0F0"/>
<path d="M101.906 53.9219L94.3945 51.2383V48.0859L104.602 52.375V54.6367L101.906 53.9219ZM94.3945 56.1719L101.918 53.4297L104.602 52.7852V55.0352L94.3945 59.3242V56.1719ZM124.348 58.2578V61H115.266V58.2578H124.348ZM116.414 43.9375V61H112.898V43.9375H116.414ZM123.164 50.8867V53.5586H115.266V50.8867H123.164ZM124.336 43.9375V46.6914H115.266V43.9375H124.336ZM128.906 48.3203L131.004 52.1758L133.16 48.3203H136.758L133.172 54.5195L136.922 61H133.312L131.027 56.9219L128.742 61H125.133L128.883 54.5195L125.297 48.3203H128.906ZM143.402 58.5977C143.816 58.5977 144.184 58.5195 144.504 58.3633C144.824 58.1992 145.074 57.9727 145.254 57.6836C145.441 57.3867 145.539 57.0391 145.547 56.6406H148.723C148.715 57.5312 148.477 58.3242 148.008 59.0195C147.539 59.707 146.91 60.25 146.121 60.6484C145.332 61.0391 144.449 61.2344 143.473 61.2344C142.488 61.2344 141.629 61.0703 140.895 60.7422C140.168 60.4141 139.562 59.9609 139.078 59.3828C138.594 58.7969 138.23 58.1172 137.988 57.3438C137.746 56.5625 137.625 55.7266 137.625 54.8359V54.4961C137.625 53.5977 137.746 52.7617 137.988 51.9883C138.23 51.207 138.594 50.5273 139.078 49.9492C139.562 49.3633 140.168 48.9062 140.895 48.5781C141.621 48.25 142.473 48.0859 143.449 48.0859C144.488 48.0859 145.398 48.2852 146.18 48.6836C146.969 49.082 147.586 49.6523 148.031 50.3945C148.484 51.1289 148.715 52 148.723 53.0078H145.547C145.539 52.5859 145.449 52.2031 145.277 51.8594C145.113 51.5156 144.871 51.2422 144.551 51.0391C144.238 50.8281 143.852 50.7227 143.391 50.7227C142.898 50.7227 142.496 50.8281 142.184 51.0391C141.871 51.2422 141.629 51.5234 141.457 51.8828C141.285 52.2344 141.164 52.6367 141.094 53.0898C141.031 53.5352 141 54.0039 141 54.4961V54.8359C141 55.3281 141.031 55.8008 141.094 56.2539C141.156 56.707 141.273 57.1094 141.445 57.4609C141.625 57.8125 141.871 58.0898 142.184 58.293C142.496 58.4961 142.902 58.5977 143.402 58.5977ZM153.973 43V61H150.598V43H153.973ZM153.492 54.2148H152.566C152.574 53.332 152.691 52.5195 152.918 51.7773C153.145 51.0273 153.469 50.3789 153.891 49.832C154.312 49.2773 154.816 48.8477 155.402 48.543C155.996 48.2383 156.652 48.0859 157.371 48.0859C157.996 48.0859 158.562 48.1758 159.07 48.3555C159.586 48.5273 160.027 48.8086 160.395 49.1992C160.77 49.582 161.059 50.0859 161.262 50.7109C161.465 51.3359 161.566 52.0938 161.566 52.9844V61H158.168V52.9609C158.168 52.3984 158.086 51.957 157.922 51.6367C157.766 51.3086 157.535 51.0781 157.23 50.9453C156.934 50.8047 156.566 50.7344 156.129 50.7344C155.645 50.7344 155.23 50.8242 154.887 51.0039C154.551 51.1836 154.281 51.4336 154.078 51.7539C153.875 52.0664 153.727 52.4336 153.633 52.8555C153.539 53.2773 153.492 53.7305 153.492 54.2148ZM170.977 58.1406V52.4922C170.977 52.0859 170.91 51.7383 170.777 51.4492C170.645 51.1523 170.438 50.9219 170.156 50.7578C169.883 50.5938 169.527 50.5117 169.09 50.5117C168.715 50.5117 168.391 50.5781 168.117 50.7109C167.844 50.8359 167.633 51.0195 167.484 51.2617C167.336 51.4961 167.262 51.7734 167.262 52.0938H163.887C163.887 51.5547 164.012 51.043 164.262 50.5586C164.512 50.0742 164.875 49.6484 165.352 49.2812C165.828 48.9062 166.395 48.6133 167.051 48.4023C167.715 48.1914 168.457 48.0859 169.277 48.0859C170.262 48.0859 171.137 48.25 171.902 48.5781C172.668 48.9062 173.27 49.3984 173.707 50.0547C174.152 50.7109 174.375 51.5312 174.375 52.5156V57.9414C174.375 58.6367 174.418 59.207 174.504 59.6523C174.59 60.0898 174.715 60.4727 174.879 60.8008V61H171.469C171.305 60.6562 171.18 60.2266 171.094 59.7109C171.016 59.1875 170.977 58.6641 170.977 58.1406ZM171.422 53.2773L171.445 55.1875H169.559C169.113 55.1875 168.727 55.2383 168.398 55.3398C168.07 55.4414 167.801 55.5859 167.59 55.7734C167.379 55.9531 167.223 56.1641 167.121 56.4062C167.027 56.6484 166.98 56.9141 166.98 57.2031C166.98 57.4922 167.047 57.7539 167.18 57.9883C167.312 58.2148 167.504 58.3945 167.754 58.5273C168.004 58.6523 168.297 58.7148 168.633 58.7148C169.141 58.7148 169.582 58.6133 169.957 58.4102C170.332 58.207 170.621 57.957 170.824 57.6602C171.035 57.3633 171.145 57.082 171.152 56.8164L172.043 58.2461C171.918 58.5664 171.746 58.8984 171.527 59.2422C171.316 59.5859 171.047 59.9102 170.719 60.2148C170.391 60.5117 169.996 60.7578 169.535 60.9531C169.074 61.1406 168.527 61.2344 167.895 61.2344C167.09 61.2344 166.359 61.0742 165.703 60.7539C165.055 60.4258 164.539 59.9766 164.156 59.4062C163.781 58.8281 163.594 58.1719 163.594 57.4375C163.594 56.7734 163.719 56.1836 163.969 55.668C164.219 55.1523 164.586 54.7188 165.07 54.3672C165.562 54.0078 166.176 53.7383 166.91 53.5586C167.645 53.3711 168.496 53.2773 169.465 53.2773H171.422ZM180.281 51.0273V61H176.906V48.3203H180.07L180.281 51.0273ZM179.789 54.2148H178.875C178.875 53.2773 178.996 52.4336 179.238 51.6836C179.48 50.9258 179.82 50.2812 180.258 49.75C180.695 49.2109 181.215 48.8008 181.816 48.5195C182.426 48.2305 183.105 48.0859 183.855 48.0859C184.449 48.0859 184.992 48.1719 185.484 48.3438C185.977 48.5156 186.398 48.7891 186.75 49.1641C187.109 49.5391 187.383 50.0352 187.57 50.6523C187.766 51.2695 187.863 52.0234 187.863 52.9141V61H184.465V52.9023C184.465 52.3398 184.387 51.9023 184.23 51.5898C184.074 51.2773 183.844 51.0586 183.539 50.9336C183.242 50.8008 182.875 50.7344 182.438 50.7344C181.984 50.7344 181.59 50.8242 181.254 51.0039C180.926 51.1836 180.652 51.4336 180.434 51.7539C180.223 52.0664 180.062 52.4336 179.953 52.8555C179.844 53.2773 179.789 53.7305 179.789 54.2148ZM198.457 48.3203H201.516V60.5781C201.516 61.7344 201.258 62.7148 200.742 63.5195C200.234 64.332 199.523 64.9453 198.609 65.3594C197.695 65.7812 196.633 65.9922 195.422 65.9922C194.891 65.9922 194.328 65.9219 193.734 65.7812C193.148 65.6406 192.586 65.4219 192.047 65.125C191.516 64.8281 191.07 64.4531 190.711 64L192.199 62.0078C192.59 62.4609 193.043 62.8125 193.559 63.0625C194.074 63.3203 194.645 63.4492 195.27 63.4492C195.879 63.4492 196.395 63.3359 196.816 63.1094C197.238 62.8906 197.562 62.5664 197.789 62.1367C198.016 61.7148 198.129 61.2031 198.129 60.6016V51.25L198.457 48.3203ZM189.926 54.8125V54.5664C189.926 53.5977 190.043 52.7188 190.277 51.9297C190.52 51.1328 190.859 50.4492 191.297 49.8789C191.742 49.3086 192.281 48.8672 192.914 48.5547C193.547 48.2422 194.262 48.0859 195.059 48.0859C195.902 48.0859 196.609 48.2422 197.18 48.5547C197.75 48.8672 198.219 49.3125 198.586 49.8906C198.953 50.4609 199.238 51.1367 199.441 51.918C199.652 52.6914 199.816 53.5391 199.934 54.4609V55C199.816 55.8828 199.641 56.7031 199.406 57.4609C199.172 58.2188 198.863 58.8828 198.48 59.4531C198.098 60.0156 197.621 60.4531 197.051 60.7656C196.488 61.0781 195.816 61.2344 195.035 61.2344C194.254 61.2344 193.547 61.0742 192.914 60.7539C192.289 60.4336 191.754 59.9844 191.309 59.4062C190.863 58.8281 190.52 58.1484 190.277 57.3672C190.043 56.5859 189.926 55.7344 189.926 54.8125ZM193.301 54.5664V54.8125C193.301 55.3359 193.352 55.8242 193.453 56.2773C193.555 56.7305 193.711 57.1328 193.922 57.4844C194.141 57.8281 194.41 58.0977 194.73 58.293C195.059 58.4805 195.445 58.5742 195.891 58.5742C196.508 58.5742 197.012 58.4453 197.402 58.1875C197.793 57.9219 198.086 57.5586 198.281 57.0977C198.477 56.6367 198.59 56.1055 198.621 55.5039V53.9688C198.605 53.4766 198.539 53.0352 198.422 52.6445C198.305 52.2461 198.141 51.9062 197.93 51.625C197.719 51.3438 197.445 51.125 197.109 50.9688C196.773 50.8125 196.375 50.7344 195.914 50.7344C195.469 50.7344 195.082 50.8359 194.754 51.0391C194.434 51.2344 194.164 51.5039 193.945 51.8477C193.734 52.1914 193.574 52.5977 193.465 53.0664C193.355 53.5273 193.301 54.0273 193.301 54.5664ZM209.977 61.2344C208.992 61.2344 208.109 61.0781 207.328 60.7656C206.547 60.4453 205.883 60.0039 205.336 59.4414C204.797 58.8789 204.383 58.2266 204.094 57.4844C203.805 56.7344 203.66 55.9375 203.66 55.0938V54.625C203.66 53.6641 203.797 52.7852 204.07 51.9883C204.344 51.1914 204.734 50.5 205.242 49.9141C205.758 49.3281 206.383 48.8789 207.117 48.5664C207.852 48.2461 208.68 48.0859 209.602 48.0859C210.5 48.0859 211.297 48.2344 211.992 48.5312C212.688 48.8281 213.27 49.25 213.738 49.7969C214.215 50.3438 214.574 51 214.816 51.7656C215.059 52.5234 215.18 53.3672 215.18 54.2969V55.7031H205.102V53.4531H211.863V53.1953C211.863 52.7266 211.777 52.3086 211.605 51.9414C211.441 51.5664 211.191 51.2695 210.855 51.0508C210.52 50.832 210.09 50.7227 209.566 50.7227C209.121 50.7227 208.738 50.8203 208.418 51.0156C208.098 51.2109 207.836 51.4844 207.633 51.8359C207.438 52.1875 207.289 52.6016 207.188 53.0781C207.094 53.5469 207.047 54.0625 207.047 54.625V55.0938C207.047 55.6016 207.117 56.0703 207.258 56.5C207.406 56.9297 207.613 57.3008 207.879 57.6133C208.152 57.9258 208.48 58.168 208.863 58.3398C209.254 58.5117 209.695 58.5977 210.188 58.5977C210.797 58.5977 211.363 58.4805 211.887 58.2461C212.418 58.0039 212.875 57.6406 213.258 57.1562L214.898 58.9375C214.633 59.3203 214.27 59.6875 213.809 60.0391C213.355 60.3906 212.809 60.6797 212.168 60.9062C211.527 61.125 210.797 61.2344 209.977 61.2344ZM220.207 43.9375L223.418 49.8906L226.629 43.9375H230.648L225.691 52.3984L230.777 61H226.723L223.418 54.9297L220.113 61H216.035L221.133 52.3984L216.164 43.9375H220.207ZM235.711 50.7578V65.875H232.336V48.3203H235.465L235.711 50.7578ZM243.738 54.5195V54.7656C243.738 55.6875 243.629 56.543 243.41 57.332C243.199 58.1211 242.887 58.8086 242.473 59.3945C242.059 59.9727 241.543 60.4258 240.926 60.7539C240.316 61.0742 239.613 61.2344 238.816 61.2344C238.043 61.2344 237.371 61.0781 236.801 60.7656C236.23 60.4531 235.75 60.0156 235.359 59.4531C234.977 58.8828 234.668 58.2227 234.434 57.4727C234.199 56.7227 234.02 55.918 233.895 55.0586V54.4141C234.02 53.4922 234.199 52.6484 234.434 51.8828C234.668 51.1094 234.977 50.4414 235.359 49.8789C235.75 49.3086 236.227 48.8672 236.789 48.5547C237.359 48.2422 238.027 48.0859 238.793 48.0859C239.598 48.0859 240.305 48.2383 240.914 48.543C241.531 48.8477 242.047 49.2852 242.461 49.8555C242.883 50.4258 243.199 51.1055 243.41 51.8945C243.629 52.6836 243.738 53.5586 243.738 54.5195ZM240.352 54.7656V54.5195C240.352 53.9805 240.305 53.4844 240.211 53.0312C240.125 52.5703 239.984 52.168 239.789 51.8242C239.602 51.4805 239.352 51.2148 239.039 51.0273C238.734 50.832 238.363 50.7344 237.926 50.7344C237.465 50.7344 237.07 50.8086 236.742 50.957C236.422 51.1055 236.16 51.3203 235.957 51.6016C235.754 51.8828 235.602 52.2188 235.5 52.6094C235.398 53 235.336 53.4414 235.312 53.9336V55.5625C235.352 56.1406 235.461 56.6602 235.641 57.1211C235.82 57.5742 236.098 57.9336 236.473 58.1992C236.848 58.4648 237.34 58.5977 237.949 58.5977C238.395 58.5977 238.77 58.5 239.074 58.3047C239.379 58.1016 239.625 57.8242 239.812 57.4727C240.008 57.1211 240.145 56.7148 240.223 56.2539C240.309 55.793 240.352 55.2969 240.352 54.7656ZM251.672 61.2344C250.688 61.2344 249.805 61.0781 249.023 60.7656C248.242 60.4453 247.578 60.0039 247.031 59.4414C246.492 58.8789 246.078 58.2266 245.789 57.4844C245.5 56.7344 245.355 55.9375 245.355 55.0938V54.625C245.355 53.6641 245.492 52.7852 245.766 51.9883C246.039 51.1914 246.43 50.5 246.938 49.9141C247.453 49.3281 248.078 48.8789 248.812 48.5664C249.547 48.2461 250.375 48.0859 251.297 48.0859C252.195 48.0859 252.992 48.2344 253.688 48.5312C254.383 48.8281 254.965 49.25 255.434 49.7969C255.91 50.3438 256.27 51 256.512 51.7656C256.754 52.5234 256.875 53.3672 256.875 54.2969V55.7031H246.797V53.4531H253.559V53.1953C253.559 52.7266 253.473 52.3086 253.301 51.9414C253.137 51.5664 252.887 51.2695 252.551 51.0508C252.215 50.832 251.785 50.7227 251.262 50.7227C250.816 50.7227 250.434 50.8203 250.113 51.0156C249.793 51.2109 249.531 51.4844 249.328 51.8359C249.133 52.1875 248.984 52.6016 248.883 53.0781C248.789 53.5469 248.742 54.0625 248.742 54.625V55.0938C248.742 55.6016 248.812 56.0703 248.953 56.5C249.102 56.9297 249.309 57.3008 249.574 57.6133C249.848 57.9258 250.176 58.168 250.559 58.3398C250.949 58.5117 251.391 58.5977 251.883 58.5977C252.492 58.5977 253.059 58.4805 253.582 58.2461C254.113 58.0039 254.57 57.6406 254.953 57.1562L256.594 58.9375C256.328 59.3203 255.965 59.6875 255.504 60.0391C255.051 60.3906 254.504 60.6797 253.863 60.9062C253.223 61.125 252.492 61.2344 251.672 61.2344ZM262.172 51.0859V61H258.797V48.3203H261.973L262.172 51.0859ZM265.992 48.2383L265.934 51.3672C265.77 51.3438 265.57 51.3242 265.336 51.3086C265.109 51.2852 264.902 51.2734 264.715 51.2734C264.238 51.2734 263.824 51.3359 263.473 51.4609C263.129 51.5781 262.84 51.7539 262.605 51.9883C262.379 52.2227 262.207 52.5078 262.09 52.8438C261.98 53.1797 261.918 53.5625 261.902 53.9922L261.223 53.7812C261.223 52.9609 261.305 52.207 261.469 51.5195C261.633 50.8242 261.871 50.2188 262.184 49.7031C262.504 49.1875 262.895 48.7891 263.355 48.5078C263.816 48.2266 264.344 48.0859 264.938 48.0859C265.125 48.0859 265.316 48.1016 265.512 48.1328C265.707 48.1562 265.867 48.1914 265.992 48.2383ZM274.383 48.3203V50.7109H267V48.3203H274.383ZM268.828 45.1914H272.203V57.1797C272.203 57.5469 272.25 57.8281 272.344 58.0234C272.445 58.2188 272.594 58.3555 272.789 58.4336C272.984 58.5039 273.23 58.5391 273.527 58.5391C273.738 58.5391 273.926 58.5312 274.09 58.5156C274.262 58.4922 274.406 58.4688 274.523 58.4453L274.535 60.9297C274.246 61.0234 273.934 61.0977 273.598 61.1523C273.262 61.207 272.891 61.2344 272.484 61.2344C271.742 61.2344 271.094 61.1133 270.539 60.8711C269.992 60.6211 269.57 60.2227 269.273 59.6758C268.977 59.1289 268.828 58.4102 268.828 57.5195V45.1914Z" fill="#888888"/>
<path d="M114.117 84.875H122.344V107.164C122.344 109.82 121.789 112.07 120.68 113.914C119.57 115.742 118.016 117.125 116.016 118.062C114.016 119 111.664 119.469 108.961 119.469C106.289 119.469 103.938 119 101.906 118.062C99.8906 117.125 98.3125 115.742 97.1719 113.914C96.0469 112.07 95.4844 109.82 95.4844 107.164V84.875H103.734V107.164C103.734 108.57 103.938 109.719 104.344 110.609C104.75 111.484 105.344 112.125 106.125 112.531C106.906 112.938 107.852 113.141 108.961 113.141C110.086 113.141 111.031 112.938 111.797 112.531C112.562 112.125 113.141 111.484 113.531 110.609C113.922 109.719 114.117 108.57 114.117 107.164V84.875ZM136.266 84.875V119H128.062V84.875H136.266ZM172.523 84.875H180.75V107.164C180.75 109.82 180.195 112.07 179.086 113.914C177.977 115.742 176.422 117.125 174.422 118.062C172.422 119 170.07 119.469 167.367 119.469C164.695 119.469 162.344 119 160.312 118.062C158.297 117.125 156.719 115.742 155.578 113.914C154.453 112.07 153.891 109.82 153.891 107.164V84.875H162.141V107.164C162.141 108.57 162.344 109.719 162.75 110.609C163.156 111.484 163.75 112.125 164.531 112.531C165.312 112.938 166.258 113.141 167.367 113.141C168.492 113.141 169.438 112.938 170.203 112.531C170.969 112.125 171.547 111.484 171.938 110.609C172.328 109.719 172.523 108.57 172.523 107.164V84.875ZM193.078 84.875L198.656 96.2188L204.234 84.875H213.609L204.094 101.797L213.867 119H204.398L198.656 107.445L192.914 119H183.422L193.219 101.797L183.68 84.875H193.078Z" fill="black"/>
<path d="M1134 0H1348C1356.28 0 1363 6.71573 1363 15V148C1363 156.284 1356.28 163 1348 163H1134V0Z" fill="#474FA2"/>
<path d="M1248.5 111.917C1244.51 111.917 1240.55 111.13 1236.86 109.601C1233.17 108.073 1229.82 105.832 1226.99 103.008C1221.29 97.3036 1218.08 89.567 1218.08 81.5C1218.08 73.433 1221.29 65.6964 1226.99 59.9922C1232.7 54.2879 1240.43 51.0833 1248.5 51.0833C1265.23 51.0833 1278.92 63.25 1278.92 78.4583C1278.92 83.2985 1276.99 87.9405 1273.57 91.363C1270.15 94.7856 1265.51 96.7083 1260.67 96.7083H1255.19C1254.28 96.7083 1253.67 97.3167 1253.67 98.2292C1253.67 98.5333 1253.97 98.8375 1253.97 99.1417C1255.19 100.662 1255.8 102.487 1255.8 104.312C1256.1 108.571 1252.76 111.917 1248.5 111.917ZM1248.5 57.1667C1242.05 57.1667 1235.86 59.7303 1231.29 64.2937C1226.73 68.8571 1224.17 75.0464 1224.17 81.5C1224.17 87.9536 1226.73 94.1429 1231.29 98.7063C1235.86 103.27 1242.05 105.833 1248.5 105.833C1249.41 105.833 1250.02 105.225 1250.02 104.312C1250.02 103.704 1249.72 103.4 1249.72 103.096C1248.5 101.575 1247.89 100.054 1247.89 98.2292C1247.89 93.9708 1251.24 90.625 1255.5 90.625H1260.67C1263.89 90.625 1266.99 89.3432 1269.27 87.0615C1271.55 84.7798 1272.83 81.6851 1272.83 78.4583C1272.83 66.5958 1261.88 57.1667 1248.5 57.1667ZM1231.77 75.4167C1234.2 75.4167 1236.33 77.5458 1236.33 79.9792C1236.33 82.4125 1234.2 84.5417 1231.77 84.5417C1229.34 84.5417 1227.21 82.4125 1227.21 79.9792C1227.21 77.5458 1229.34 75.4167 1231.77 75.4167ZM1240.9 63.25C1243.33 63.25 1245.46 65.3792 1245.46 67.8125C1245.46 70.2458 1243.33 72.375 1240.9 72.375C1238.46 72.375 1236.33 70.2458 1236.33 67.8125C1236.33 65.3792 1238.46 63.25 1240.9 63.25ZM1256.1 63.25C1258.54 63.25 1260.67 65.3792 1260.67 67.8125C1260.67 70.2458 1258.54 72.375 1256.1 72.375C1253.67 72.375 1251.54 70.2458 1251.54 67.8125C1251.54 65.3792 1253.67 63.25 1256.1 63.25ZM1265.23 75.4167C1267.66 75.4167 1269.79 77.5458 1269.79 79.9792C1269.79 82.4125 1267.66 84.5417 1265.23 84.5417C1262.8 84.5417 1260.67 82.4125 1260.67 79.9792C1260.67 77.5458 1262.8 75.4167 1265.23 75.4167Z" fill="white"/>
</svg>
