<svg width="1363" height="163" viewBox="0 0 1363 163" fill="none" xmlns="http://www.w3.org/2000/svg">
<path d="M0 15C0 6.71573 6.71573 0 15 0H37V163H15C6.71573 163 0 156.284 0 148V15Z" fill="#424242"/>
<rect width="1097" height="163" transform="translate(37)" fill="#F0F0F0"/>
<path d="M101.906 53.9219L94.3945 51.2383V48.0859L104.602 52.375V54.6367L101.906 53.9219ZM94.3945 56.1719L101.918 53.4297L104.602 52.7852V55.0352L94.3945 59.3242V56.1719ZM124.348 58.2578V61H115.266V58.2578H124.348ZM116.414 43.9375V61H112.898V43.9375H116.414ZM123.164 50.8867V53.5586H115.266V50.8867H123.164ZM124.336 43.9375V46.6914H115.266V43.9375H124.336ZM128.906 48.3203L131.004 52.1758L133.16 48.3203H136.758L133.172 54.5195L136.922 61H133.312L131.027 56.9219L128.742 61H125.133L128.883 54.5195L125.297 48.3203H128.906ZM143.402 58.5977C143.816 58.5977 144.184 58.5195 144.504 58.3633C144.824 58.1992 145.074 57.9727 145.254 57.6836C145.441 57.3867 145.539 57.0391 145.547 56.6406H148.723C148.715 57.5312 148.477 58.3242 148.008 59.0195C147.539 59.707 146.91 60.25 146.121 60.6484C145.332 61.0391 144.449 61.2344 143.473 61.2344C142.488 61.2344 141.629 61.0703 140.895 60.7422C140.168 60.4141 139.562 59.9609 139.078 59.3828C138.594 58.7969 138.23 58.1172 137.988 57.3438C137.746 56.5625 137.625 55.7266 137.625 54.8359V54.4961C137.625 53.5977 137.746 52.7617 137.988 51.9883C138.23 51.207 138.594 50.5273 139.078 49.9492C139.562 49.3633 140.168 48.9062 140.895 48.5781C141.621 48.25 142.473 48.0859 143.449 48.0859C144.488 48.0859 145.398 48.2852 146.18 48.6836C146.969 49.082 147.586 49.6523 148.031 50.3945C148.484 51.1289 148.715 52 148.723 53.0078H145.547C145.539 52.5859 145.449 52.2031 145.277 51.8594C145.113 51.5156 144.871 51.2422 144.551 51.0391C144.238 50.8281 143.852 50.7227 143.391 50.7227C142.898 50.7227 142.496 50.8281 142.184 51.0391C141.871 51.2422 141.629 51.5234 141.457 51.8828C141.285 52.2344 141.164 52.6367 141.094 53.0898C141.031 53.5352 141 54.0039 141 54.4961V54.8359C141 55.3281 141.031 55.8008 141.094 56.2539C141.156 56.707 141.273 57.1094 141.445 57.4609C141.625 57.8125 141.871 58.0898 142.184 58.293C142.496 58.4961 142.902 58.5977 143.402 58.5977ZM153.973 43V61H150.598V43H153.973ZM153.492 54.2148H152.566C152.574 53.332 152.691 52.5195 152.918 51.7773C153.145 51.0273 153.469 50.3789 153.891 49.832C154.312 49.2773 154.816 48.8477 155.402 48.543C155.996 48.2383 156.652 48.0859 157.371 48.0859C157.996 48.0859 158.562 48.1758 159.07 48.3555C159.586 48.5273 160.027 48.8086 160.395 49.1992C160.77 49.582 161.059 50.0859 161.262 50.7109C161.465 51.3359 161.566 52.0938 161.566 52.9844V61H158.168V52.9609C158.168 52.3984 158.086 51.957 157.922 51.6367C157.766 51.3086 157.535 51.0781 157.23 50.9453C156.934 50.8047 156.566 50.7344 156.129 50.7344C155.645 50.7344 155.23 50.8242 154.887 51.0039C154.551 51.1836 154.281 51.4336 154.078 51.7539C153.875 52.0664 153.727 52.4336 153.633 52.8555C153.539 53.2773 153.492 53.7305 153.492 54.2148ZM170.977 58.1406V52.4922C170.977 52.0859 170.91 51.7383 170.777 51.4492C170.645 51.1523 170.438 50.9219 170.156 50.7578C169.883 50.5938 169.527 50.5117 169.09 50.5117C168.715 50.5117 168.391 50.5781 168.117 50.7109C167.844 50.8359 167.633 51.0195 167.484 51.2617C167.336 51.4961 167.262 51.7734 167.262 52.0938H163.887C163.887 51.5547 164.012 51.043 164.262 50.5586C164.512 50.0742 164.875 49.6484 165.352 49.2812C165.828 48.9062 166.395 48.6133 167.051 48.4023C167.715 48.1914 168.457 48.0859 169.277 48.0859C170.262 48.0859 171.137 48.25 171.902 48.5781C172.668 48.9062 173.27 49.3984 173.707 50.0547C174.152 50.7109 174.375 51.5312 174.375 52.5156V57.9414C174.375 58.6367 174.418 59.207 174.504 59.6523C174.59 60.0898 174.715 60.4727 174.879 60.8008V61H171.469C171.305 60.6562 171.18 60.2266 171.094 59.7109C171.016 59.1875 170.977 58.6641 170.977 58.1406ZM171.422 53.2773L171.445 55.1875H169.559C169.113 55.1875 168.727 55.2383 168.398 55.3398C168.07 55.4414 167.801 55.5859 167.59 55.7734C167.379 55.9531 167.223 56.1641 167.121 56.4062C167.027 56.6484 166.98 56.9141 166.98 57.2031C166.98 57.4922 167.047 57.7539 167.18 57.9883C167.312 58.2148 167.504 58.3945 167.754 58.5273C168.004 58.6523 168.297 58.7148 168.633 58.7148C169.141 58.7148 169.582 58.6133 169.957 58.4102C170.332 58.207 170.621 57.957 170.824 57.6602C171.035 57.3633 171.145 57.082 171.152 56.8164L172.043 58.2461C171.918 58.5664 171.746 58.8984 171.527 59.2422C171.316 59.5859 171.047 59.9102 170.719 60.2148C170.391 60.5117 169.996 60.7578 169.535 60.9531C169.074 61.1406 168.527 61.2344 167.895 61.2344C167.09 61.2344 166.359 61.0742 165.703 60.7539C165.055 60.4258 164.539 59.9766 164.156 59.4062C163.781 58.8281 163.594 58.1719 163.594 57.4375C163.594 56.7734 163.719 56.1836 163.969 55.668C164.219 55.1523 164.586 54.7188 165.07 54.3672C165.562 54.0078 166.176 53.7383 166.91 53.5586C167.645 53.3711 168.496 53.2773 169.465 53.2773H171.422ZM180.281 51.0273V61H176.906V48.3203H180.07L180.281 51.0273ZM179.789 54.2148H178.875C178.875 53.2773 178.996 52.4336 179.238 51.6836C179.48 50.9258 179.82 50.2812 180.258 49.75C180.695 49.2109 181.215 48.8008 181.816 48.5195C182.426 48.2305 183.105 48.0859 183.855 48.0859C184.449 48.0859 184.992 48.1719 185.484 48.3438C185.977 48.5156 186.398 48.7891 186.75 49.1641C187.109 49.5391 187.383 50.0352 187.57 50.6523C187.766 51.2695 187.863 52.0234 187.863 52.9141V61H184.465V52.9023C184.465 52.3398 184.387 51.9023 184.23 51.5898C184.074 51.2773 183.844 51.0586 183.539 50.9336C183.242 50.8008 182.875 50.7344 182.438 50.7344C181.984 50.7344 181.59 50.8242 181.254 51.0039C180.926 51.1836 180.652 51.4336 180.434 51.7539C180.223 52.0664 180.062 52.4336 179.953 52.8555C179.844 53.2773 179.789 53.7305 179.789 54.2148ZM198.457 48.3203H201.516V60.5781C201.516 61.7344 201.258 62.7148 200.742 63.5195C200.234 64.332 199.523 64.9453 198.609 65.3594C197.695 65.7812 196.633 65.9922 195.422 65.9922C194.891 65.9922 194.328 65.9219 193.734 65.7812C193.148 65.6406 192.586 65.4219 192.047 65.125C191.516 64.8281 191.07 64.4531 190.711 64L192.199 62.0078C192.59 62.4609 193.043 62.8125 193.559 63.0625C194.074 63.3203 194.645 63.4492 195.27 63.4492C195.879 63.4492 196.395 63.3359 196.816 63.1094C197.238 62.8906 197.562 62.5664 197.789 62.1367C198.016 61.7148 198.129 61.2031 198.129 60.6016V51.25L198.457 48.3203ZM189.926 54.8125V54.5664C189.926 53.5977 190.043 52.7188 190.277 51.9297C190.52 51.1328 190.859 50.4492 191.297 49.8789C191.742 49.3086 192.281 48.8672 192.914 48.5547C193.547 48.2422 194.262 48.0859 195.059 48.0859C195.902 48.0859 196.609 48.2422 197.18 48.5547C197.75 48.8672 198.219 49.3125 198.586 49.8906C198.953 50.4609 199.238 51.1367 199.441 51.918C199.652 52.6914 199.816 53.5391 199.934 54.4609V55C199.816 55.8828 199.641 56.7031 199.406 57.4609C199.172 58.2188 198.863 58.8828 198.48 59.4531C198.098 60.0156 197.621 60.4531 197.051 60.7656C196.488 61.0781 195.816 61.2344 195.035 61.2344C194.254 61.2344 193.547 61.0742 192.914 60.7539C192.289 60.4336 191.754 59.9844 191.309 59.4062C190.863 58.8281 190.52 58.1484 190.277 57.3672C190.043 56.5859 189.926 55.7344 189.926 54.8125ZM193.301 54.5664V54.8125C193.301 55.3359 193.352 55.8242 193.453 56.2773C193.555 56.7305 193.711 57.1328 193.922 57.4844C194.141 57.8281 194.41 58.0977 194.73 58.293C195.059 58.4805 195.445 58.5742 195.891 58.5742C196.508 58.5742 197.012 58.4453 197.402 58.1875C197.793 57.9219 198.086 57.5586 198.281 57.0977C198.477 56.6367 198.59 56.1055 198.621 55.5039V53.9688C198.605 53.4766 198.539 53.0352 198.422 52.6445C198.305 52.2461 198.141 51.9062 197.93 51.625C197.719 51.3438 197.445 51.125 197.109 50.9688C196.773 50.8125 196.375 50.7344 195.914 50.7344C195.469 50.7344 195.082 50.8359 194.754 51.0391C194.434 51.2344 194.164 51.5039 193.945 51.8477C193.734 52.1914 193.574 52.5977 193.465 53.0664C193.355 53.5273 193.301 54.0273 193.301 54.5664ZM209.977 61.2344C208.992 61.2344 208.109 61.0781 207.328 60.7656C206.547 60.4453 205.883 60.0039 205.336 59.4414C204.797 58.8789 204.383 58.2266 204.094 57.4844C203.805 56.7344 203.66 55.9375 203.66 55.0938V54.625C203.66 53.6641 203.797 52.7852 204.07 51.9883C204.344 51.1914 204.734 50.5 205.242 49.9141C205.758 49.3281 206.383 48.8789 207.117 48.5664C207.852 48.2461 208.68 48.0859 209.602 48.0859C210.5 48.0859 211.297 48.2344 211.992 48.5312C212.688 48.8281 213.27 49.25 213.738 49.7969C214.215 50.3438 214.574 51 214.816 51.7656C215.059 52.5234 215.18 53.3672 215.18 54.2969V55.7031H205.102V53.4531H211.863V53.1953C211.863 52.7266 211.777 52.3086 211.605 51.9414C211.441 51.5664 211.191 51.2695 210.855 51.0508C210.52 50.832 210.09 50.7227 209.566 50.7227C209.121 50.7227 208.738 50.8203 208.418 51.0156C208.098 51.2109 207.836 51.4844 207.633 51.8359C207.438 52.1875 207.289 52.6016 207.188 53.0781C207.094 53.5469 207.047 54.0625 207.047 54.625V55.0938C207.047 55.6016 207.117 56.0703 207.258 56.5C207.406 56.9297 207.613 57.3008 207.879 57.6133C208.152 57.9258 208.48 58.168 208.863 58.3398C209.254 58.5117 209.695 58.5977 210.188 58.5977C210.797 58.5977 211.363 58.4805 211.887 58.2461C212.418 58.0039 212.875 57.6406 213.258 57.1562L214.898 58.9375C214.633 59.3203 214.27 59.6875 213.809 60.0391C213.355 60.3906 212.809 60.6797 212.168 60.9062C211.527 61.125 210.797 61.2344 209.977 61.2344ZM220.207 43.9375L223.418 49.8906L226.629 43.9375H230.648L225.691 52.3984L230.777 61H226.723L223.418 54.9297L220.113 61H216.035L221.133 52.3984L216.164 43.9375H220.207ZM235.711 50.7578V65.875H232.336V48.3203H235.465L235.711 50.7578ZM243.738 54.5195V54.7656C243.738 55.6875 243.629 56.543 243.41 57.332C243.199 58.1211 242.887 58.8086 242.473 59.3945C242.059 59.9727 241.543 60.4258 240.926 60.7539C240.316 61.0742 239.613 61.2344 238.816 61.2344C238.043 61.2344 237.371 61.0781 236.801 60.7656C236.23 60.4531 235.75 60.0156 235.359 59.4531C234.977 58.8828 234.668 58.2227 234.434 57.4727C234.199 56.7227 234.02 55.918 233.895 55.0586V54.4141C234.02 53.4922 234.199 52.6484 234.434 51.8828C234.668 51.1094 234.977 50.4414 235.359 49.8789C235.75 49.3086 236.227 48.8672 236.789 48.5547C237.359 48.2422 238.027 48.0859 238.793 48.0859C239.598 48.0859 240.305 48.2383 240.914 48.543C241.531 48.8477 242.047 49.2852 242.461 49.8555C242.883 50.4258 243.199 51.1055 243.41 51.8945C243.629 52.6836 243.738 53.5586 243.738 54.5195ZM240.352 54.7656V54.5195C240.352 53.9805 240.305 53.4844 240.211 53.0312C240.125 52.5703 239.984 52.168 239.789 51.8242C239.602 51.4805 239.352 51.2148 239.039 51.0273C238.734 50.832 238.363 50.7344 237.926 50.7344C237.465 50.7344 237.07 50.8086 236.742 50.957C236.422 51.1055 236.16 51.3203 235.957 51.6016C235.754 51.8828 235.602 52.2188 235.5 52.6094C235.398 53 235.336 53.4414 235.312 53.9336V55.5625C235.352 56.1406 235.461 56.6602 235.641 57.1211C235.82 57.5742 236.098 57.9336 236.473 58.1992C236.848 58.4648 237.34 58.5977 237.949 58.5977C238.395 58.5977 238.77 58.5 239.074 58.3047C239.379 58.1016 239.625 57.8242 239.812 57.4727C240.008 57.1211 240.145 56.7148 240.223 56.2539C240.309 55.793 240.352 55.2969 240.352 54.7656ZM251.672 61.2344C250.688 61.2344 249.805 61.0781 249.023 60.7656C248.242 60.4453 247.578 60.0039 247.031 59.4414C246.492 58.8789 246.078 58.2266 245.789 57.4844C245.5 56.7344 245.355 55.9375 245.355 55.0938V54.625C245.355 53.6641 245.492 52.7852 245.766 51.9883C246.039 51.1914 246.43 50.5 246.938 49.9141C247.453 49.3281 248.078 48.8789 248.812 48.5664C249.547 48.2461 250.375 48.0859 251.297 48.0859C252.195 48.0859 252.992 48.2344 253.688 48.5312C254.383 48.8281 254.965 49.25 255.434 49.7969C255.91 50.3438 256.27 51 256.512 51.7656C256.754 52.5234 256.875 53.3672 256.875 54.2969V55.7031H246.797V53.4531H253.559V53.1953C253.559 52.7266 253.473 52.3086 253.301 51.9414C253.137 51.5664 252.887 51.2695 252.551 51.0508C252.215 50.832 251.785 50.7227 251.262 50.7227C250.816 50.7227 250.434 50.8203 250.113 51.0156C249.793 51.2109 249.531 51.4844 249.328 51.8359C249.133 52.1875 248.984 52.6016 248.883 53.0781C248.789 53.5469 248.742 54.0625 248.742 54.625V55.0938C248.742 55.6016 248.812 56.0703 248.953 56.5C249.102 56.9297 249.309 57.3008 249.574 57.6133C249.848 57.9258 250.176 58.168 250.559 58.3398C250.949 58.5117 251.391 58.5977 251.883 58.5977C252.492 58.5977 253.059 58.4805 253.582 58.2461C254.113 58.0039 254.57 57.6406 254.953 57.1562L256.594 58.9375C256.328 59.3203 255.965 59.6875 255.504 60.0391C255.051 60.3906 254.504 60.6797 253.863 60.9062C253.223 61.125 252.492 61.2344 251.672 61.2344ZM262.172 51.0859V61H258.797V48.3203H261.973L262.172 51.0859ZM265.992 48.2383L265.934 51.3672C265.77 51.3438 265.57 51.3242 265.336 51.3086C265.109 51.2852 264.902 51.2734 264.715 51.2734C264.238 51.2734 263.824 51.3359 263.473 51.4609C263.129 51.5781 262.84 51.7539 262.605 51.9883C262.379 52.2227 262.207 52.5078 262.09 52.8438C261.98 53.1797 261.918 53.5625 261.902 53.9922L261.223 53.7812C261.223 52.9609 261.305 52.207 261.469 51.5195C261.633 50.8242 261.871 50.2188 262.184 49.7031C262.504 49.1875 262.895 48.7891 263.355 48.5078C263.816 48.2266 264.344 48.0859 264.938 48.0859C265.125 48.0859 265.316 48.1016 265.512 48.1328C265.707 48.1562 265.867 48.1914 265.992 48.2383ZM274.383 48.3203V50.7109H267V48.3203H274.383ZM268.828 45.1914H272.203V57.1797C272.203 57.5469 272.25 57.8281 272.344 58.0234C272.445 58.2188 272.594 58.3555 272.789 58.4336C272.984 58.5039 273.23 58.5391 273.527 58.5391C273.738 58.5391 273.926 58.5312 274.09 58.5156C274.262 58.4922 274.406 58.4688 274.523 58.4453L274.535 60.9297C274.246 61.0234 273.934 61.0977 273.598 61.1523C273.262 61.207 272.891 61.2344 272.484 61.2344C271.742 61.2344 271.094 61.1133 270.539 60.8711C269.992 60.6211 269.57 60.2227 269.273 59.6758C268.977 59.1289 268.828 58.4102 268.828 57.5195V45.1914Z" fill="#888888"/>
<path d="M110.062 92.0469L101.742 119H92.9062L105.445 84.875H111.047L110.062 92.0469ZM116.953 119L108.609 92.0469L107.531 84.875H113.203L125.812 119H116.953ZM116.625 106.273V112.625H99.1172V106.273H116.625ZM135.258 115.906L142.055 84.875H146.109L148.312 87.5234L141.07 119H136.594L135.258 115.906ZM133.453 84.875L139.195 116.141L137.719 119H132.539L125.297 84.875H133.453ZM152.039 115.977L157.734 84.875H165.867L158.625 119H153.469L152.039 115.977ZM149.039 84.875L156 116.094L154.594 119H150.117L142.711 87.4766L145.008 84.875H149.039ZM186.68 109.93C186.68 109.398 186.602 108.922 186.445 108.5C186.289 108.062 186 107.656 185.578 107.281C185.156 106.906 184.547 106.531 183.75 106.156C182.969 105.766 181.938 105.359 180.656 104.938C179.156 104.438 177.711 103.875 176.32 103.25C174.93 102.609 173.688 101.867 172.594 101.023C171.5 100.164 170.633 99.1641 169.992 98.0234C169.352 96.8672 169.031 95.5234 169.031 93.9922C169.031 92.5234 169.359 91.2031 170.016 90.0312C170.672 88.8438 171.586 87.8359 172.758 87.0078C173.945 86.1641 175.336 85.5234 176.93 85.0859C178.523 84.6328 180.266 84.4062 182.156 84.4062C184.656 84.4062 186.859 84.8438 188.766 85.7188C190.688 86.5781 192.188 87.8047 193.266 89.3984C194.359 90.9766 194.906 92.8438 194.906 95H186.727C186.727 94.1406 186.547 93.3828 186.188 92.7266C185.844 92.0703 185.32 91.5547 184.617 91.1797C183.914 90.8047 183.031 90.6172 181.969 90.6172C180.938 90.6172 180.07 90.7734 179.367 91.0859C178.664 91.3984 178.133 91.8203 177.773 92.3516C177.414 92.8672 177.234 93.4375 177.234 94.0625C177.234 94.5781 177.375 95.0469 177.656 95.4688C177.953 95.875 178.367 96.2578 178.898 96.6172C179.445 96.9766 180.102 97.3203 180.867 97.6484C181.648 97.9766 182.523 98.2969 183.492 98.6094C185.305 99.1875 186.914 99.8359 188.32 100.555C189.742 101.258 190.938 102.062 191.906 102.969C192.891 103.859 193.633 104.875 194.133 106.016C194.648 107.156 194.906 108.445 194.906 109.883C194.906 111.414 194.609 112.773 194.016 113.961C193.422 115.148 192.57 116.156 191.461 116.984C190.352 117.797 189.023 118.414 187.477 118.836C185.93 119.258 184.203 119.469 182.297 119.469C180.547 119.469 178.82 119.25 177.117 118.812C175.43 118.359 173.898 117.672 172.523 116.75C171.148 115.812 170.047 114.617 169.219 113.164C168.406 111.695 168 109.953 168 107.938H176.25C176.25 108.938 176.383 109.781 176.648 110.469C176.914 111.156 177.305 111.711 177.82 112.133C178.336 112.539 178.969 112.836 179.719 113.023C180.469 113.195 181.328 113.281 182.297 113.281C183.344 113.281 184.188 113.133 184.828 112.836C185.469 112.523 185.938 112.117 186.234 111.617C186.531 111.102 186.68 110.539 186.68 109.93ZM222.188 119H214.617L214.664 112.672H222.188C223.75 112.672 225.07 112.297 226.148 111.547C227.242 110.797 228.07 109.68 228.633 108.195C229.211 106.695 229.5 104.852 229.5 102.664V101.188C229.5 99.5469 229.336 98.1094 229.008 96.875C228.695 95.625 228.227 94.5859 227.602 93.7578C226.977 92.9141 226.195 92.2812 225.258 91.8594C224.336 91.4375 223.273 91.2266 222.07 91.2266H214.477V84.875H222.07C224.383 84.875 226.5 85.2734 228.422 86.0703C230.359 86.8516 232.031 87.9766 233.438 89.4453C234.859 90.8984 235.953 92.625 236.719 94.625C237.5 96.6094 237.891 98.8125 237.891 101.234V102.664C237.891 105.07 237.5 107.273 236.719 109.273C235.953 111.273 234.867 113 233.461 114.453C232.055 115.906 230.391 117.031 228.469 117.828C226.562 118.609 224.469 119 222.188 119ZM219.328 84.875V119H211.102V84.875H219.328ZM254.086 119.469C252.023 119.469 250.18 119.148 248.555 118.508C246.93 117.852 245.555 116.953 244.43 115.812C243.32 114.672 242.469 113.359 241.875 111.875C241.297 110.391 241.008 108.82 241.008 107.164V106.273C241.008 104.414 241.266 102.695 241.781 101.117C242.297 99.5234 243.062 98.1328 244.078 96.9453C245.094 95.7578 246.367 94.8359 247.898 94.1797C249.43 93.5078 251.211 93.1719 253.242 93.1719C255.039 93.1719 256.648 93.4609 258.07 94.0391C259.492 94.6172 260.695 95.4453 261.68 96.5234C262.68 97.6016 263.438 98.9062 263.953 100.438C264.484 101.969 264.75 103.688 264.75 105.594V108.805H244.031V103.859H257.039V103.25C257.055 102.406 256.906 101.688 256.594 101.094C256.297 100.5 255.859 100.047 255.281 99.7344C254.703 99.4219 254 99.2656 253.172 99.2656C252.312 99.2656 251.602 99.4531 251.039 99.8281C250.492 100.203 250.062 100.719 249.75 101.375C249.453 102.016 249.242 102.758 249.117 103.602C248.992 104.445 248.93 105.336 248.93 106.273V107.164C248.93 108.102 249.055 108.953 249.305 109.719C249.57 110.484 249.945 111.141 250.43 111.688C250.93 112.219 251.523 112.633 252.211 112.93C252.914 113.227 253.711 113.375 254.602 113.375C255.68 113.375 256.742 113.172 257.789 112.766C258.836 112.359 259.734 111.688 260.484 110.75L264.07 115.016C263.555 115.75 262.82 116.461 261.867 117.148C260.93 117.836 259.805 118.398 258.492 118.836C257.18 119.258 255.711 119.469 254.086 119.469ZM275.93 98.5156V128.75H268.031V93.6406H275.391L275.93 98.5156ZM291.492 106.016V106.508C291.492 108.352 291.281 110.062 290.859 111.641C290.438 113.219 289.812 114.594 288.984 115.766C288.156 116.938 287.125 117.852 285.891 118.508C284.672 119.148 283.258 119.469 281.648 119.469C280.133 119.469 278.828 119.133 277.734 118.461C276.641 117.789 275.727 116.859 274.992 115.672C274.258 114.484 273.664 113.125 273.211 111.594C272.758 110.062 272.398 108.445 272.133 106.742V106.109C272.398 104.281 272.758 102.586 273.211 101.023C273.664 99.4453 274.258 98.0703 274.992 96.8984C275.727 95.7266 276.633 94.8125 277.711 94.1562C278.805 93.5 280.109 93.1719 281.625 93.1719C283.234 93.1719 284.648 93.4766 285.867 94.0859C287.102 94.6953 288.133 95.5703 288.961 96.7109C289.805 97.8359 290.438 99.1875 290.859 100.766C291.281 102.344 291.492 104.094 291.492 106.016ZM283.594 106.508V106.016C283.594 105.031 283.523 104.133 283.383 103.32C283.242 102.492 283.016 101.773 282.703 101.164C282.406 100.555 282.008 100.086 281.508 99.7578C281.008 99.4297 280.391 99.2656 279.656 99.2656C278.812 99.2656 278.102 99.3984 277.523 99.6641C276.961 99.9141 276.508 100.305 276.164 100.836C275.836 101.352 275.602 102 275.461 102.781C275.336 103.547 275.281 104.445 275.297 105.477V107.398C275.266 108.586 275.383 109.633 275.648 110.539C275.914 111.43 276.375 112.125 277.031 112.625C277.688 113.125 278.578 113.375 279.703 113.375C280.453 113.375 281.078 113.203 281.578 112.859C282.078 112.5 282.477 112.008 282.773 111.383C283.07 110.742 283.281 110.008 283.406 109.18C283.531 108.352 283.594 107.461 283.594 106.508ZM303.352 83V119H295.43V83H303.352ZM307.242 106.578V106.086C307.242 104.227 307.508 102.516 308.039 100.953C308.57 99.375 309.352 98.0078 310.383 96.8516C311.414 95.6953 312.688 94.7969 314.203 94.1562C315.719 93.5 317.469 93.1719 319.453 93.1719C321.453 93.1719 323.211 93.5 324.727 94.1562C326.258 94.7969 327.539 95.6953 328.57 96.8516C329.602 98.0078 330.383 99.375 330.914 100.953C331.445 102.516 331.711 104.227 331.711 106.086V106.578C331.711 108.422 331.445 110.133 330.914 111.711C330.383 113.273 329.602 114.641 328.57 115.812C327.539 116.969 326.266 117.867 324.75 118.508C323.234 119.148 321.484 119.469 319.5 119.469C317.516 119.469 315.758 119.148 314.227 118.508C312.695 117.867 311.414 116.969 310.383 115.812C309.352 114.641 308.57 113.273 308.039 111.711C307.508 110.133 307.242 108.422 307.242 106.578ZM315.141 106.086V106.578C315.141 107.531 315.211 108.422 315.352 109.25C315.492 110.078 315.727 110.805 316.055 111.43C316.383 112.039 316.828 112.516 317.391 112.859C317.953 113.203 318.656 113.375 319.5 113.375C320.328 113.375 321.016 113.203 321.562 112.859C322.125 112.516 322.57 112.039 322.898 111.43C323.227 110.805 323.461 110.078 323.602 109.25C323.742 108.422 323.812 107.531 323.812 106.578V106.086C323.812 105.164 323.742 104.297 323.602 103.484C323.461 102.656 323.227 101.93 322.898 101.305C322.57 100.664 322.125 100.164 321.562 99.8047C321 99.4453 320.297 99.2656 319.453 99.2656C318.625 99.2656 317.93 99.4453 317.367 99.8047C316.82 100.164 316.383 100.664 316.055 101.305C315.727 101.93 315.492 102.656 315.352 103.484C315.211 104.297 315.141 105.164 315.141 106.086ZM342.633 116.023L349.195 93.6406H357.68L347.484 122.773C347.266 123.414 346.977 124.102 346.617 124.836C346.258 125.586 345.766 126.297 345.141 126.969C344.516 127.641 343.711 128.188 342.727 128.609C341.758 129.031 340.555 129.242 339.117 129.242C338.352 129.242 337.789 129.203 337.43 129.125C337.086 129.062 336.555 128.945 335.836 128.773V123.125C336.039 123.125 336.211 123.125 336.352 123.125C336.508 123.125 336.68 123.125 336.867 123.125C337.711 123.125 338.383 123.039 338.883 122.867C339.398 122.695 339.789 122.445 340.055 122.117C340.336 121.789 340.555 121.391 340.711 120.922L342.633 116.023ZM340.969 93.6406L345.961 111.383L346.828 119.75H341.531L332.508 93.6406H340.969ZM367.711 99.0078V119H359.812V93.6406H367.219L367.711 99.0078ZM366.75 105.453L364.945 105.5C364.945 103.719 365.156 102.078 365.578 100.578C366 99.0781 366.625 97.7734 367.453 96.6641C368.281 95.5547 369.297 94.6953 370.5 94.0859C371.719 93.4766 373.125 93.1719 374.719 93.1719C375.828 93.1719 376.836 93.3438 377.742 93.6875C378.648 94.0156 379.43 94.5391 380.086 95.2578C380.742 95.9609 381.242 96.8828 381.586 98.0234C381.945 99.1484 382.125 100.5 382.125 102.078V119H374.227V103.086C374.227 102.008 374.102 101.195 373.852 100.648C373.617 100.102 373.273 99.7344 372.82 99.5469C372.367 99.3594 371.812 99.2656 371.156 99.2656C370.469 99.2656 369.852 99.4219 369.305 99.7344C368.758 100.047 368.289 100.484 367.898 101.047C367.523 101.594 367.234 102.242 367.031 102.992C366.844 103.742 366.75 104.562 366.75 105.453ZM381.234 105.453L379.031 105.5C379.031 103.719 379.227 102.078 379.617 100.578C380.023 99.0781 380.625 97.7734 381.422 96.6641C382.234 95.5547 383.242 94.6953 384.445 94.0859C385.648 93.4766 387.047 93.1719 388.641 93.1719C389.797 93.1719 390.859 93.3438 391.828 93.6875C392.797 94.0312 393.633 94.5859 394.336 95.3516C395.039 96.1172 395.586 97.1328 395.977 98.3984C396.367 99.6484 396.562 101.195 396.562 103.039V119H388.641V103.039C388.641 101.992 388.516 101.203 388.266 100.672C388.031 100.125 387.688 99.7578 387.234 99.5703C386.781 99.3672 386.242 99.2656 385.617 99.2656C384.867 99.2656 384.219 99.4219 383.672 99.7344C383.125 100.047 382.664 100.484 382.289 101.047C381.93 101.594 381.664 102.242 381.492 102.992C381.32 103.742 381.234 104.562 381.234 105.453ZM413.367 119.469C411.305 119.469 409.461 119.148 407.836 118.508C406.211 117.852 404.836 116.953 403.711 115.812C402.602 114.672 401.75 113.359 401.156 111.875C400.578 110.391 400.289 108.82 400.289 107.164V106.273C400.289 104.414 400.547 102.695 401.062 101.117C401.578 99.5234 402.344 98.1328 403.359 96.9453C404.375 95.7578 405.648 94.8359 407.18 94.1797C408.711 93.5078 410.492 93.1719 412.523 93.1719C414.32 93.1719 415.93 93.4609 417.352 94.0391C418.773 94.6172 419.977 95.4453 420.961 96.5234C421.961 97.6016 422.719 98.9062 423.234 100.438C423.766 101.969 424.031 103.688 424.031 105.594V108.805H403.312V103.859H416.32V103.25C416.336 102.406 416.188 101.688 415.875 101.094C415.578 100.5 415.141 100.047 414.562 99.7344C413.984 99.4219 413.281 99.2656 412.453 99.2656C411.594 99.2656 410.883 99.4531 410.32 99.8281C409.773 100.203 409.344 100.719 409.031 101.375C408.734 102.016 408.523 102.758 408.398 103.602C408.273 104.445 408.211 105.336 408.211 106.273V107.164C408.211 108.102 408.336 108.953 408.586 109.719C408.852 110.484 409.227 111.141 409.711 111.688C410.211 112.219 410.805 112.633 411.492 112.93C412.195 113.227 412.992 113.375 413.883 113.375C414.961 113.375 416.023 113.172 417.07 112.766C418.117 112.359 419.016 111.688 419.766 110.75L423.352 115.016C422.836 115.75 422.102 116.461 421.148 117.148C420.211 117.836 419.086 118.398 417.773 118.836C416.461 119.258 414.992 119.469 413.367 119.469ZM435 99.0547V119H427.102V93.6406H434.508L435 99.0547ZM434.062 105.453L432.211 105.5C432.211 103.562 432.445 101.836 432.914 100.32C433.383 98.7891 434.047 97.4922 434.906 96.4297C435.766 95.3672 436.789 94.5625 437.977 94.0156C439.18 93.4531 440.516 93.1719 441.984 93.1719C443.156 93.1719 444.227 93.3438 445.195 93.6875C446.18 94.0312 447.023 94.5859 447.727 95.3516C448.445 96.1172 448.992 97.1328 449.367 98.3984C449.758 99.6484 449.953 101.195 449.953 103.039V119H442.008V103.016C442.008 102 441.867 101.227 441.586 100.695C441.305 100.148 440.898 99.7734 440.367 99.5703C439.836 99.3672 439.188 99.2656 438.422 99.2656C437.609 99.2656 436.922 99.4219 436.359 99.7344C435.797 100.047 435.344 100.484 435 101.047C434.672 101.594 434.43 102.242 434.273 102.992C434.133 103.742 434.062 104.562 434.062 105.453ZM467.695 93.6406V99.125H452.414V93.6406H467.695ZM455.625 87.3359H463.523V110.727C463.523 111.398 463.602 111.922 463.758 112.297C463.914 112.656 464.18 112.914 464.555 113.07C464.945 113.211 465.461 113.281 466.102 113.281C466.555 113.281 466.93 113.273 467.227 113.258C467.523 113.227 467.805 113.188 468.07 113.141V118.789C467.398 119.008 466.695 119.172 465.961 119.281C465.227 119.406 464.445 119.469 463.617 119.469C461.93 119.469 460.484 119.203 459.281 118.672C458.094 118.141 457.188 117.305 456.562 116.164C455.938 115.023 455.625 113.539 455.625 111.711V87.3359Z" fill="black"/>
<path d="M1134 0H1348C1356.28 0 1363 6.71573 1363 15V148C1363 156.284 1356.28 163 1348 163H1134V0Z" fill="#474FA2"/>
<path d="M1212.5 117.5L1212.5 45.5L1284.5 45.5L1284.5 117.5L1212.5 117.5Z" fill="white" fill-opacity="0.01"/>
<path d="M1221.5 81.5125L1221.5 108.5L1275.5 108.5L1275.5 81.5" stroke="white" stroke-width="7.24" stroke-linecap="round" stroke-linejoin="round"/>
<path d="M1262 68L1248.5 54.5L1235 68" stroke="white" stroke-width="7.24" stroke-linecap="round" stroke-linejoin="round"/>
<path d="M1248.49 93.5L1248.49 54.5" stroke="white" stroke-width="7.24" stroke-linecap="round" stroke-linejoin="round"/>
</svg>
