<svg width="1363" height="163" viewBox="0 0 1363 163" fill="none" xmlns="http://www.w3.org/2000/svg">
<path d="M0 15C0 6.71573 6.71573 0 15 0H37V163H15C6.71573 163 0 156.284 0 148V15Z" fill="#424242"/>
<rect width="1097" height="163" transform="translate(37)" fill="#F0F0F0"/>
<path d="M101.906 53.9219L94.3945 51.2383V48.0859L104.602 52.375V54.6367L101.906 53.9219ZM94.3945 56.1719L101.918 53.4297L104.602 52.7852V55.0352L94.3945 59.3242V56.1719ZM124.348 58.2578V61H115.266V58.2578H124.348ZM116.414 43.9375V61H112.898V43.9375H116.414ZM123.164 50.8867V53.5586H115.266V50.8867H123.164ZM124.336 43.9375V46.6914H115.266V43.9375H124.336ZM128.906 48.3203L131.004 52.1758L133.16 48.3203H136.758L133.172 54.5195L136.922 61H133.312L131.027 56.9219L128.742 61H125.133L128.883 54.5195L125.297 48.3203H128.906ZM143.402 58.5977C143.816 58.5977 144.184 58.5195 144.504 58.3633C144.824 58.1992 145.074 57.9727 145.254 57.6836C145.441 57.3867 145.539 57.0391 145.547 56.6406H148.723C148.715 57.5312 148.477 58.3242 148.008 59.0195C147.539 59.707 146.91 60.25 146.121 60.6484C145.332 61.0391 144.449 61.2344 143.473 61.2344C142.488 61.2344 141.629 61.0703 140.895 60.7422C140.168 60.4141 139.562 59.9609 139.078 59.3828C138.594 58.7969 138.23 58.1172 137.988 57.3438C137.746 56.5625 137.625 55.7266 137.625 54.8359V54.4961C137.625 53.5977 137.746 52.7617 137.988 51.9883C138.23 51.207 138.594 50.5273 139.078 49.9492C139.562 49.3633 140.168 48.9062 140.895 48.5781C141.621 48.25 142.473 48.0859 143.449 48.0859C144.488 48.0859 145.398 48.2852 146.18 48.6836C146.969 49.082 147.586 49.6523 148.031 50.3945C148.484 51.1289 148.715 52 148.723 53.0078H145.547C145.539 52.5859 145.449 52.2031 145.277 51.8594C145.113 51.5156 144.871 51.2422 144.551 51.0391C144.238 50.8281 143.852 50.7227 143.391 50.7227C142.898 50.7227 142.496 50.8281 142.184 51.0391C141.871 51.2422 141.629 51.5234 141.457 51.8828C141.285 52.2344 141.164 52.6367 141.094 53.0898C141.031 53.5352 141 54.0039 141 54.4961V54.8359C141 55.3281 141.031 55.8008 141.094 56.2539C141.156 56.707 141.273 57.1094 141.445 57.4609C141.625 57.8125 141.871 58.0898 142.184 58.293C142.496 58.4961 142.902 58.5977 143.402 58.5977ZM153.973 43V61H150.598V43H153.973ZM153.492 54.2148H152.566C152.574 53.332 152.691 52.5195 152.918 51.7773C153.145 51.0273 153.469 50.3789 153.891 49.832C154.312 49.2773 154.816 48.8477 155.402 48.543C155.996 48.2383 156.652 48.0859 157.371 48.0859C157.996 48.0859 158.562 48.1758 159.07 48.3555C159.586 48.5273 160.027 48.8086 160.395 49.1992C160.77 49.582 161.059 50.0859 161.262 50.7109C161.465 51.3359 161.566 52.0938 161.566 52.9844V61H158.168V52.9609C158.168 52.3984 158.086 51.957 157.922 51.6367C157.766 51.3086 157.535 51.0781 157.23 50.9453C156.934 50.8047 156.566 50.7344 156.129 50.7344C155.645 50.7344 155.23 50.8242 154.887 51.0039C154.551 51.1836 154.281 51.4336 154.078 51.7539C153.875 52.0664 153.727 52.4336 153.633 52.8555C153.539 53.2773 153.492 53.7305 153.492 54.2148ZM170.977 58.1406V52.4922C170.977 52.0859 170.91 51.7383 170.777 51.4492C170.645 51.1523 170.438 50.9219 170.156 50.7578C169.883 50.5938 169.527 50.5117 169.09 50.5117C168.715 50.5117 168.391 50.5781 168.117 50.7109C167.844 50.8359 167.633 51.0195 167.484 51.2617C167.336 51.4961 167.262 51.7734 167.262 52.0938H163.887C163.887 51.5547 164.012 51.043 164.262 50.5586C164.512 50.0742 164.875 49.6484 165.352 49.2812C165.828 48.9062 166.395 48.6133 167.051 48.4023C167.715 48.1914 168.457 48.0859 169.277 48.0859C170.262 48.0859 171.137 48.25 171.902 48.5781C172.668 48.9062 173.27 49.3984 173.707 50.0547C174.152 50.7109 174.375 51.5312 174.375 52.5156V57.9414C174.375 58.6367 174.418 59.207 174.504 59.6523C174.59 60.0898 174.715 60.4727 174.879 60.8008V61H171.469C171.305 60.6562 171.18 60.2266 171.094 59.7109C171.016 59.1875 170.977 58.6641 170.977 58.1406ZM171.422 53.2773L171.445 55.1875H169.559C169.113 55.1875 168.727 55.2383 168.398 55.3398C168.07 55.4414 167.801 55.5859 167.59 55.7734C167.379 55.9531 167.223 56.1641 167.121 56.4062C167.027 56.6484 166.98 56.9141 166.98 57.2031C166.98 57.4922 167.047 57.7539 167.18 57.9883C167.312 58.2148 167.504 58.3945 167.754 58.5273C168.004 58.6523 168.297 58.7148 168.633 58.7148C169.141 58.7148 169.582 58.6133 169.957 58.4102C170.332 58.207 170.621 57.957 170.824 57.6602C171.035 57.3633 171.145 57.082 171.152 56.8164L172.043 58.2461C171.918 58.5664 171.746 58.8984 171.527 59.2422C171.316 59.5859 171.047 59.9102 170.719 60.2148C170.391 60.5117 169.996 60.7578 169.535 60.9531C169.074 61.1406 168.527 61.2344 167.895 61.2344C167.09 61.2344 166.359 61.0742 165.703 60.7539C165.055 60.4258 164.539 59.9766 164.156 59.4062C163.781 58.8281 163.594 58.1719 163.594 57.4375C163.594 56.7734 163.719 56.1836 163.969 55.668C164.219 55.1523 164.586 54.7188 165.07 54.3672C165.562 54.0078 166.176 53.7383 166.91 53.5586C167.645 53.3711 168.496 53.2773 169.465 53.2773H171.422ZM180.281 51.0273V61H176.906V48.3203H180.07L180.281 51.0273ZM179.789 54.2148H178.875C178.875 53.2773 178.996 52.4336 179.238 51.6836C179.48 50.9258 179.82 50.2812 180.258 49.75C180.695 49.2109 181.215 48.8008 181.816 48.5195C182.426 48.2305 183.105 48.0859 183.855 48.0859C184.449 48.0859 184.992 48.1719 185.484 48.3438C185.977 48.5156 186.398 48.7891 186.75 49.1641C187.109 49.5391 187.383 50.0352 187.57 50.6523C187.766 51.2695 187.863 52.0234 187.863 52.9141V61H184.465V52.9023C184.465 52.3398 184.387 51.9023 184.23 51.5898C184.074 51.2773 183.844 51.0586 183.539 50.9336C183.242 50.8008 182.875 50.7344 182.438 50.7344C181.984 50.7344 181.59 50.8242 181.254 51.0039C180.926 51.1836 180.652 51.4336 180.434 51.7539C180.223 52.0664 180.062 52.4336 179.953 52.8555C179.844 53.2773 179.789 53.7305 179.789 54.2148ZM198.457 48.3203H201.516V60.5781C201.516 61.7344 201.258 62.7148 200.742 63.5195C200.234 64.332 199.523 64.9453 198.609 65.3594C197.695 65.7812 196.633 65.9922 195.422 65.9922C194.891 65.9922 194.328 65.9219 193.734 65.7812C193.148 65.6406 192.586 65.4219 192.047 65.125C191.516 64.8281 191.07 64.4531 190.711 64L192.199 62.0078C192.59 62.4609 193.043 62.8125 193.559 63.0625C194.074 63.3203 194.645 63.4492 195.27 63.4492C195.879 63.4492 196.395 63.3359 196.816 63.1094C197.238 62.8906 197.562 62.5664 197.789 62.1367C198.016 61.7148 198.129 61.2031 198.129 60.6016V51.25L198.457 48.3203ZM189.926 54.8125V54.5664C189.926 53.5977 190.043 52.7188 190.277 51.9297C190.52 51.1328 190.859 50.4492 191.297 49.8789C191.742 49.3086 192.281 48.8672 192.914 48.5547C193.547 48.2422 194.262 48.0859 195.059 48.0859C195.902 48.0859 196.609 48.2422 197.18 48.5547C197.75 48.8672 198.219 49.3125 198.586 49.8906C198.953 50.4609 199.238 51.1367 199.441 51.918C199.652 52.6914 199.816 53.5391 199.934 54.4609V55C199.816 55.8828 199.641 56.7031 199.406 57.4609C199.172 58.2188 198.863 58.8828 198.48 59.4531C198.098 60.0156 197.621 60.4531 197.051 60.7656C196.488 61.0781 195.816 61.2344 195.035 61.2344C194.254 61.2344 193.547 61.0742 192.914 60.7539C192.289 60.4336 191.754 59.9844 191.309 59.4062C190.863 58.8281 190.52 58.1484 190.277 57.3672C190.043 56.5859 189.926 55.7344 189.926 54.8125ZM193.301 54.5664V54.8125C193.301 55.3359 193.352 55.8242 193.453 56.2773C193.555 56.7305 193.711 57.1328 193.922 57.4844C194.141 57.8281 194.41 58.0977 194.73 58.293C195.059 58.4805 195.445 58.5742 195.891 58.5742C196.508 58.5742 197.012 58.4453 197.402 58.1875C197.793 57.9219 198.086 57.5586 198.281 57.0977C198.477 56.6367 198.59 56.1055 198.621 55.5039V53.9688C198.605 53.4766 198.539 53.0352 198.422 52.6445C198.305 52.2461 198.141 51.9062 197.93 51.625C197.719 51.3438 197.445 51.125 197.109 50.9688C196.773 50.8125 196.375 50.7344 195.914 50.7344C195.469 50.7344 195.082 50.8359 194.754 51.0391C194.434 51.2344 194.164 51.5039 193.945 51.8477C193.734 52.1914 193.574 52.5977 193.465 53.0664C193.355 53.5273 193.301 54.0273 193.301 54.5664ZM209.977 61.2344C208.992 61.2344 208.109 61.0781 207.328 60.7656C206.547 60.4453 205.883 60.0039 205.336 59.4414C204.797 58.8789 204.383 58.2266 204.094 57.4844C203.805 56.7344 203.66 55.9375 203.66 55.0938V54.625C203.66 53.6641 203.797 52.7852 204.07 51.9883C204.344 51.1914 204.734 50.5 205.242 49.9141C205.758 49.3281 206.383 48.8789 207.117 48.5664C207.852 48.2461 208.68 48.0859 209.602 48.0859C210.5 48.0859 211.297 48.2344 211.992 48.5312C212.688 48.8281 213.27 49.25 213.738 49.7969C214.215 50.3438 214.574 51 214.816 51.7656C215.059 52.5234 215.18 53.3672 215.18 54.2969V55.7031H205.102V53.4531H211.863V53.1953C211.863 52.7266 211.777 52.3086 211.605 51.9414C211.441 51.5664 211.191 51.2695 210.855 51.0508C210.52 50.832 210.09 50.7227 209.566 50.7227C209.121 50.7227 208.738 50.8203 208.418 51.0156C208.098 51.2109 207.836 51.4844 207.633 51.8359C207.438 52.1875 207.289 52.6016 207.188 53.0781C207.094 53.5469 207.047 54.0625 207.047 54.625V55.0938C207.047 55.6016 207.117 56.0703 207.258 56.5C207.406 56.9297 207.613 57.3008 207.879 57.6133C208.152 57.9258 208.48 58.168 208.863 58.3398C209.254 58.5117 209.695 58.5977 210.188 58.5977C210.797 58.5977 211.363 58.4805 211.887 58.2461C212.418 58.0039 212.875 57.6406 213.258 57.1562L214.898 58.9375C214.633 59.3203 214.27 59.6875 213.809 60.0391C213.355 60.3906 212.809 60.6797 212.168 60.9062C211.527 61.125 210.797 61.2344 209.977 61.2344ZM220.207 43.9375L223.418 49.8906L226.629 43.9375H230.648L225.691 52.3984L230.777 61H226.723L223.418 54.9297L220.113 61H216.035L221.133 52.3984L216.164 43.9375H220.207ZM235.711 50.7578V65.875H232.336V48.3203H235.465L235.711 50.7578ZM243.738 54.5195V54.7656C243.738 55.6875 243.629 56.543 243.41 57.332C243.199 58.1211 242.887 58.8086 242.473 59.3945C242.059 59.9727 241.543 60.4258 240.926 60.7539C240.316 61.0742 239.613 61.2344 238.816 61.2344C238.043 61.2344 237.371 61.0781 236.801 60.7656C236.23 60.4531 235.75 60.0156 235.359 59.4531C234.977 58.8828 234.668 58.2227 234.434 57.4727C234.199 56.7227 234.02 55.918 233.895 55.0586V54.4141C234.02 53.4922 234.199 52.6484 234.434 51.8828C234.668 51.1094 234.977 50.4414 235.359 49.8789C235.75 49.3086 236.227 48.8672 236.789 48.5547C237.359 48.2422 238.027 48.0859 238.793 48.0859C239.598 48.0859 240.305 48.2383 240.914 48.543C241.531 48.8477 242.047 49.2852 242.461 49.8555C242.883 50.4258 243.199 51.1055 243.41 51.8945C243.629 52.6836 243.738 53.5586 243.738 54.5195ZM240.352 54.7656V54.5195C240.352 53.9805 240.305 53.4844 240.211 53.0312C240.125 52.5703 239.984 52.168 239.789 51.8242C239.602 51.4805 239.352 51.2148 239.039 51.0273C238.734 50.832 238.363 50.7344 237.926 50.7344C237.465 50.7344 237.07 50.8086 236.742 50.957C236.422 51.1055 236.16 51.3203 235.957 51.6016C235.754 51.8828 235.602 52.2188 235.5 52.6094C235.398 53 235.336 53.4414 235.312 53.9336V55.5625C235.352 56.1406 235.461 56.6602 235.641 57.1211C235.82 57.5742 236.098 57.9336 236.473 58.1992C236.848 58.4648 237.34 58.5977 237.949 58.5977C238.395 58.5977 238.77 58.5 239.074 58.3047C239.379 58.1016 239.625 57.8242 239.812 57.4727C240.008 57.1211 240.145 56.7148 240.223 56.2539C240.309 55.793 240.352 55.2969 240.352 54.7656ZM251.672 61.2344C250.688 61.2344 249.805 61.0781 249.023 60.7656C248.242 60.4453 247.578 60.0039 247.031 59.4414C246.492 58.8789 246.078 58.2266 245.789 57.4844C245.5 56.7344 245.355 55.9375 245.355 55.0938V54.625C245.355 53.6641 245.492 52.7852 245.766 51.9883C246.039 51.1914 246.43 50.5 246.938 49.9141C247.453 49.3281 248.078 48.8789 248.812 48.5664C249.547 48.2461 250.375 48.0859 251.297 48.0859C252.195 48.0859 252.992 48.2344 253.688 48.5312C254.383 48.8281 254.965 49.25 255.434 49.7969C255.91 50.3438 256.27 51 256.512 51.7656C256.754 52.5234 256.875 53.3672 256.875 54.2969V55.7031H246.797V53.4531H253.559V53.1953C253.559 52.7266 253.473 52.3086 253.301 51.9414C253.137 51.5664 252.887 51.2695 252.551 51.0508C252.215 50.832 251.785 50.7227 251.262 50.7227C250.816 50.7227 250.434 50.8203 250.113 51.0156C249.793 51.2109 249.531 51.4844 249.328 51.8359C249.133 52.1875 248.984 52.6016 248.883 53.0781C248.789 53.5469 248.742 54.0625 248.742 54.625V55.0938C248.742 55.6016 248.812 56.0703 248.953 56.5C249.102 56.9297 249.309 57.3008 249.574 57.6133C249.848 57.9258 250.176 58.168 250.559 58.3398C250.949 58.5117 251.391 58.5977 251.883 58.5977C252.492 58.5977 253.059 58.4805 253.582 58.2461C254.113 58.0039 254.57 57.6406 254.953 57.1562L256.594 58.9375C256.328 59.3203 255.965 59.6875 255.504 60.0391C255.051 60.3906 254.504 60.6797 253.863 60.9062C253.223 61.125 252.492 61.2344 251.672 61.2344ZM262.172 51.0859V61H258.797V48.3203H261.973L262.172 51.0859ZM265.992 48.2383L265.934 51.3672C265.77 51.3438 265.57 51.3242 265.336 51.3086C265.109 51.2852 264.902 51.2734 264.715 51.2734C264.238 51.2734 263.824 51.3359 263.473 51.4609C263.129 51.5781 262.84 51.7539 262.605 51.9883C262.379 52.2227 262.207 52.5078 262.09 52.8438C261.98 53.1797 261.918 53.5625 261.902 53.9922L261.223 53.7812C261.223 52.9609 261.305 52.207 261.469 51.5195C261.633 50.8242 261.871 50.2188 262.184 49.7031C262.504 49.1875 262.895 48.7891 263.355 48.5078C263.816 48.2266 264.344 48.0859 264.938 48.0859C265.125 48.0859 265.316 48.1016 265.512 48.1328C265.707 48.1562 265.867 48.1914 265.992 48.2383ZM274.383 48.3203V50.7109H267V48.3203H274.383ZM268.828 45.1914H272.203V57.1797C272.203 57.5469 272.25 57.8281 272.344 58.0234C272.445 58.2188 272.594 58.3555 272.789 58.4336C272.984 58.5039 273.23 58.5391 273.527 58.5391C273.738 58.5391 273.926 58.5312 274.09 58.5156C274.262 58.4922 274.406 58.4688 274.523 58.4453L274.535 60.9297C274.246 61.0234 273.934 61.0977 273.598 61.1523C273.262 61.207 272.891 61.2344 272.484 61.2344C271.742 61.2344 271.094 61.1133 270.539 60.8711C269.992 60.6211 269.57 60.2227 269.273 59.6758C268.977 59.1289 268.828 58.4102 268.828 57.5195V45.1914Z" fill="#888888"/>
<path d="M112.125 84.875V119H103.898V84.875H112.125ZM122.391 84.875V91.2266H93.8672V84.875H122.391ZM135.68 119.469C133.617 119.469 131.773 119.148 130.148 118.508C128.523 117.852 127.148 116.953 126.023 115.812C124.914 114.672 124.062 113.359 123.469 111.875C122.891 110.391 122.602 108.82 122.602 107.164V106.273C122.602 104.414 122.859 102.695 123.375 101.117C123.891 99.5234 124.656 98.1328 125.672 96.9453C126.688 95.7578 127.961 94.8359 129.492 94.1797C131.023 93.5078 132.805 93.1719 134.836 93.1719C136.633 93.1719 138.242 93.4609 139.664 94.0391C141.086 94.6172 142.289 95.4453 143.273 96.5234C144.273 97.6016 145.031 98.9062 145.547 100.438C146.078 101.969 146.344 103.688 146.344 105.594V108.805H125.625V103.859H138.633V103.25C138.648 102.406 138.5 101.688 138.188 101.094C137.891 100.5 137.453 100.047 136.875 99.7344C136.297 99.4219 135.594 99.2656 134.766 99.2656C133.906 99.2656 133.195 99.4531 132.633 99.8281C132.086 100.203 131.656 100.719 131.344 101.375C131.047 102.016 130.836 102.758 130.711 103.602C130.586 104.445 130.523 105.336 130.523 106.273V107.164C130.523 108.102 130.648 108.953 130.898 109.719C131.164 110.484 131.539 111.141 132.023 111.688C132.523 112.219 133.117 112.633 133.805 112.93C134.508 113.227 135.305 113.375 136.195 113.375C137.273 113.375 138.336 113.172 139.383 112.766C140.43 112.359 141.328 111.688 142.078 110.75L145.664 115.016C145.148 115.75 144.414 116.461 143.461 117.148C142.523 117.836 141.398 118.398 140.086 118.836C138.773 119.258 137.305 119.469 135.68 119.469ZM160.266 113.375C161 113.375 161.625 113.242 162.141 112.977C162.672 112.695 163.07 112.305 163.336 111.805C163.617 111.289 163.75 110.672 163.734 109.953H171.164C171.18 111.859 170.711 113.531 169.758 114.969C168.82 116.391 167.539 117.5 165.914 118.297C164.305 119.078 162.484 119.469 160.453 119.469C158.469 119.469 156.734 119.148 155.25 118.508C153.766 117.852 152.523 116.945 151.523 115.789C150.539 114.617 149.797 113.25 149.297 111.688C148.812 110.125 148.57 108.43 148.57 106.602V106.062C148.57 104.234 148.812 102.539 149.297 100.977C149.797 99.3984 150.539 98.0312 151.523 96.875C152.523 95.7031 153.758 94.7969 155.227 94.1562C156.711 93.5 158.438 93.1719 160.406 93.1719C162.516 93.1719 164.375 93.5703 165.984 94.3672C167.609 95.1641 168.883 96.3203 169.805 97.8359C170.727 99.3516 171.18 101.188 171.164 103.344H163.734C163.75 102.578 163.633 101.891 163.383 101.281C163.133 100.672 162.742 100.188 162.211 99.8281C161.695 99.4531 161.031 99.2656 160.219 99.2656C159.406 99.2656 158.75 99.4453 158.25 99.8047C157.75 100.164 157.367 100.664 157.102 101.305C156.852 101.93 156.68 102.648 156.586 103.461C156.508 104.273 156.469 105.141 156.469 106.062V106.602C156.469 107.539 156.508 108.422 156.586 109.25C156.68 110.062 156.859 110.781 157.125 111.406C157.391 112.016 157.773 112.5 158.273 112.859C158.773 113.203 159.438 113.375 160.266 113.375ZM182.273 83V119H174.375V83H182.273ZM181.336 105.453L179.484 105.5C179.484 103.719 179.703 102.078 180.141 100.578C180.578 99.0781 181.203 97.7734 182.016 96.6641C182.828 95.5547 183.805 94.6953 184.945 94.0859C186.086 93.4766 187.352 93.1719 188.742 93.1719C189.992 93.1719 191.133 93.3516 192.164 93.7109C193.211 94.0703 194.109 94.6484 194.859 95.4453C195.625 96.2422 196.211 97.2812 196.617 98.5625C197.039 99.8438 197.25 101.406 197.25 103.25V119H189.305V103.203C189.305 102.172 189.156 101.375 188.859 100.812C188.578 100.234 188.172 99.8359 187.641 99.6172C187.109 99.3828 186.461 99.2656 185.695 99.2656C184.773 99.2656 184.023 99.4219 183.445 99.7344C182.867 100.047 182.422 100.484 182.109 101.047C181.812 101.594 181.609 102.242 181.5 102.992C181.391 103.742 181.336 104.562 181.336 105.453ZM231.539 109.93C231.539 109.398 231.461 108.922 231.305 108.5C231.148 108.062 230.859 107.656 230.438 107.281C230.016 106.906 229.406 106.531 228.609 106.156C227.828 105.766 226.797 105.359 225.516 104.938C224.016 104.438 222.57 103.875 221.18 103.25C219.789 102.609 218.547 101.867 217.453 101.023C216.359 100.164 215.492 99.1641 214.852 98.0234C214.211 96.8672 213.891 95.5234 213.891 93.9922C213.891 92.5234 214.219 91.2031 214.875 90.0312C215.531 88.8438 216.445 87.8359 217.617 87.0078C218.805 86.1641 220.195 85.5234 221.789 85.0859C223.383 84.6328 225.125 84.4062 227.016 84.4062C229.516 84.4062 231.719 84.8438 233.625 85.7188C235.547 86.5781 237.047 87.8047 238.125 89.3984C239.219 90.9766 239.766 92.8438 239.766 95H231.586C231.586 94.1406 231.406 93.3828 231.047 92.7266C230.703 92.0703 230.18 91.5547 229.477 91.1797C228.773 90.8047 227.891 90.6172 226.828 90.6172C225.797 90.6172 224.93 90.7734 224.227 91.0859C223.523 91.3984 222.992 91.8203 222.633 92.3516C222.273 92.8672 222.094 93.4375 222.094 94.0625C222.094 94.5781 222.234 95.0469 222.516 95.4688C222.812 95.875 223.227 96.2578 223.758 96.6172C224.305 96.9766 224.961 97.3203 225.727 97.6484C226.508 97.9766 227.383 98.2969 228.352 98.6094C230.164 99.1875 231.773 99.8359 233.18 100.555C234.602 101.258 235.797 102.062 236.766 102.969C237.75 103.859 238.492 104.875 238.992 106.016C239.508 107.156 239.766 108.445 239.766 109.883C239.766 111.414 239.469 112.773 238.875 113.961C238.281 115.148 237.43 116.156 236.32 116.984C235.211 117.797 233.883 118.414 232.336 118.836C230.789 119.258 229.062 119.469 227.156 119.469C225.406 119.469 223.68 119.25 221.977 118.812C220.289 118.359 218.758 117.672 217.383 116.75C216.008 115.812 214.906 114.617 214.078 113.164C213.266 111.695 212.859 109.953 212.859 107.938H221.109C221.109 108.938 221.242 109.781 221.508 110.469C221.773 111.156 222.164 111.711 222.68 112.133C223.195 112.539 223.828 112.836 224.578 113.023C225.328 113.195 226.188 113.281 227.156 113.281C228.203 113.281 229.047 113.133 229.688 112.836C230.328 112.523 230.797 112.117 231.094 111.617C231.391 111.102 231.539 110.539 231.539 109.93ZM256.992 93.6406V99.125H241.711V93.6406H256.992ZM244.922 87.3359H252.82V110.727C252.82 111.398 252.898 111.922 253.055 112.297C253.211 112.656 253.477 112.914 253.852 113.07C254.242 113.211 254.758 113.281 255.398 113.281C255.852 113.281 256.227 113.273 256.523 113.258C256.82 113.227 257.102 113.188 257.367 113.141V118.789C256.695 119.008 255.992 119.172 255.258 119.281C254.523 119.406 253.742 119.469 252.914 119.469C251.227 119.469 249.781 119.203 248.578 118.672C247.391 118.141 246.484 117.305 245.859 116.164C245.234 115.023 244.922 113.539 244.922 111.711V87.3359ZM273.305 112.625V102.172C273.305 101.453 273.203 100.836 273 100.32C272.797 99.8047 272.477 99.4062 272.039 99.125C271.602 98.8281 271.016 98.6797 270.281 98.6797C269.688 98.6797 269.18 98.7812 268.758 98.9844C268.336 99.1875 268.016 99.4922 267.797 99.8984C267.578 100.305 267.469 100.82 267.469 101.445H259.57C259.57 100.273 259.828 99.1875 260.344 98.1875C260.875 97.1719 261.625 96.2891 262.594 95.5391C263.578 94.7891 264.75 94.2109 266.109 93.8047C267.484 93.3828 269.016 93.1719 270.703 93.1719C272.719 93.1719 274.516 93.5078 276.094 94.1797C277.688 94.8516 278.945 95.8594 279.867 97.2031C280.789 98.5312 281.25 100.203 281.25 102.219V112.602C281.25 114.258 281.344 115.516 281.531 116.375C281.719 117.219 281.984 117.961 282.328 118.602V119H274.406C274.031 118.219 273.75 117.266 273.562 116.141C273.391 115 273.305 113.828 273.305 112.625ZM274.266 103.508L274.312 107.727H270.82C270.086 107.727 269.461 107.828 268.945 108.031C268.445 108.234 268.039 108.516 267.727 108.875C267.43 109.219 267.211 109.609 267.07 110.047C266.945 110.484 266.883 110.945 266.883 111.43C266.883 111.898 266.992 112.32 267.211 112.695C267.445 113.055 267.758 113.336 268.148 113.539C268.539 113.742 268.977 113.844 269.461 113.844C270.336 113.844 271.078 113.68 271.688 113.352C272.312 113.008 272.789 112.594 273.117 112.109C273.445 111.625 273.609 111.172 273.609 110.75L275.344 113.984C275.031 114.609 274.672 115.242 274.266 115.883C273.875 116.523 273.383 117.117 272.789 117.664C272.211 118.195 271.5 118.633 270.656 118.977C269.812 119.305 268.789 119.469 267.586 119.469C266.023 119.469 264.586 119.148 263.273 118.508C261.977 117.867 260.938 116.977 260.156 115.836C259.375 114.68 258.984 113.352 258.984 111.852C258.984 110.539 259.219 109.367 259.688 108.336C260.172 107.305 260.898 106.43 261.867 105.711C262.836 104.992 264.07 104.445 265.57 104.07C267.07 103.695 268.836 103.508 270.867 103.508H274.266ZM296.344 113.375C297.078 113.375 297.703 113.242 298.219 112.977C298.75 112.695 299.148 112.305 299.414 111.805C299.695 111.289 299.828 110.672 299.812 109.953H307.242C307.258 111.859 306.789 113.531 305.836 114.969C304.898 116.391 303.617 117.5 301.992 118.297C300.383 119.078 298.562 119.469 296.531 119.469C294.547 119.469 292.812 119.148 291.328 118.508C289.844 117.852 288.602 116.945 287.602 115.789C286.617 114.617 285.875 113.25 285.375 111.688C284.891 110.125 284.648 108.43 284.648 106.602V106.062C284.648 104.234 284.891 102.539 285.375 100.977C285.875 99.3984 286.617 98.0312 287.602 96.875C288.602 95.7031 289.836 94.7969 291.305 94.1562C292.789 93.5 294.516 93.1719 296.484 93.1719C298.594 93.1719 300.453 93.5703 302.062 94.3672C303.688 95.1641 304.961 96.3203 305.883 97.8359C306.805 99.3516 307.258 101.188 307.242 103.344H299.812C299.828 102.578 299.711 101.891 299.461 101.281C299.211 100.672 298.82 100.188 298.289 99.8281C297.773 99.4531 297.109 99.2656 296.297 99.2656C295.484 99.2656 294.828 99.4453 294.328 99.8047C293.828 100.164 293.445 100.664 293.18 101.305C292.93 101.93 292.758 102.648 292.664 103.461C292.586 104.273 292.547 105.141 292.547 106.062V106.602C292.547 107.539 292.586 108.422 292.664 109.25C292.758 110.062 292.938 110.781 293.203 111.406C293.469 112.016 293.852 112.5 294.352 112.859C294.852 113.203 295.516 113.375 296.344 113.375ZM318.586 82.9766V119H310.688V82.9766H318.586ZM334.805 93.6406L323.789 106.555L318.023 112.32L314.578 107.305L319.383 101.047L325.336 93.6406H334.805ZM326.344 119L319.57 107.445L325.406 103.297L335.391 119H326.344ZM350.156 111.875C350.156 111.438 350.008 111.062 349.711 110.75C349.43 110.422 348.93 110.125 348.211 109.859C347.492 109.578 346.484 109.297 345.188 109.016C343.953 108.75 342.789 108.398 341.695 107.961C340.617 107.523 339.672 106.992 338.859 106.367C338.047 105.742 337.406 105 336.938 104.141C336.484 103.281 336.258 102.297 336.258 101.188C336.258 100.109 336.484 99.0938 336.938 98.1406C337.406 97.1719 338.086 96.3203 338.977 95.5859C339.883 94.8359 340.984 94.25 342.281 93.8281C343.578 93.3906 345.055 93.1719 346.711 93.1719C348.992 93.1719 350.961 93.5234 352.617 94.2266C354.273 94.9141 355.547 95.8828 356.438 97.1328C357.344 98.3672 357.797 99.7969 357.797 101.422H349.898C349.898 100.781 349.789 100.234 349.57 99.7812C349.367 99.3281 349.031 98.9844 348.562 98.75C348.094 98.5 347.469 98.375 346.688 98.375C346.141 98.375 345.641 98.4766 345.188 98.6797C344.75 98.8828 344.398 99.1641 344.133 99.5234C343.867 99.8828 343.734 100.305 343.734 100.789C343.734 101.133 343.812 101.445 343.969 101.727C344.141 101.992 344.398 102.242 344.742 102.477C345.086 102.695 345.523 102.898 346.055 103.086C346.586 103.258 347.227 103.414 347.977 103.555C349.68 103.867 351.273 104.312 352.758 104.891C354.242 105.469 355.445 106.289 356.367 107.352C357.305 108.414 357.773 109.844 357.773 111.641C357.773 112.766 357.516 113.805 357 114.758C356.484 115.695 355.742 116.523 354.773 117.242C353.805 117.945 352.641 118.492 351.281 118.883C349.922 119.273 348.391 119.469 346.688 119.469C344.266 119.469 342.219 119.039 340.547 118.18C338.875 117.305 337.609 116.211 336.75 114.898C335.906 113.57 335.484 112.227 335.484 110.867H342.844C342.875 111.648 343.062 112.289 343.406 112.789C343.766 113.289 344.242 113.656 344.836 113.891C345.43 114.125 346.117 114.242 346.898 114.242C347.617 114.242 348.211 114.141 348.68 113.938C349.164 113.734 349.531 113.461 349.781 113.117C350.031 112.758 350.156 112.344 350.156 111.875Z" fill="black"/>
<path d="M1134 0H1348C1356.28 0 1363 6.71573 1363 15V148C1363 156.284 1356.28 163 1348 163H1134V0Z" fill="#474FA2"/>
<path fill-rule="evenodd" clip-rule="evenodd" d="M1219.98 53C1219.85 53 1219.73 53.0527 1219.64 53.1464C1219.55 53.2402 1219.5 53.3674 1219.5 53.5V109.5C1219.5 109.633 1219.55 109.76 1219.64 109.854C1219.73 109.947 1219.85 110 1219.98 110H1277.02C1277.15 110 1277.27 109.947 1277.36 109.854C1277.45 109.76 1277.5 109.633 1277.5 109.5V64C1277.5 63.8674 1277.45 63.7402 1277.36 63.6464C1277.27 63.5527 1277.15 63.5 1277.02 63.5H1248.5C1247.65 63.5 1246.84 63.1045 1246.29 62.4206L1238.77 53H1219.98ZM1215.58 48.9038C1216.74 47.6848 1218.33 47 1219.98 47H1240.11C1240.97 47 1241.77 47.3955 1242.32 48.0794L1249.85 57.5H1277.02C1278.67 57.5 1280.26 58.1848 1281.42 59.4038C1282.59 60.6228 1283.25 62.2761 1283.25 64V109.5C1283.25 111.224 1282.59 112.877 1281.42 114.096C1280.26 115.315 1278.67 116 1277.02 116H1219.98C1218.33 116 1216.74 115.315 1215.58 114.096C1214.41 112.877 1213.75 111.224 1213.75 109.5V53.5C1213.75 51.7761 1214.41 50.1228 1215.58 48.9038Z" fill="white"/>
<path fill-rule="evenodd" clip-rule="evenodd" d="M1244.16 75.5251C1245.47 76.892 1245.47 79.108 1244.16 80.4749L1238.15 86.75L1244.16 93.0251C1245.47 94.392 1245.47 96.608 1244.16 97.9749C1242.85 99.3417 1240.73 99.3417 1239.42 97.9749L1231.03 89.2249C1229.72 87.858 1229.72 85.642 1231.03 84.2751L1239.42 75.5251C1240.73 74.1583 1242.85 74.1583 1244.16 75.5251Z" fill="white"/>
<path fill-rule="evenodd" clip-rule="evenodd" d="M1252.12 97.9749C1250.81 96.608 1250.81 94.392 1252.12 93.0251L1258.13 86.75L1252.12 80.4749C1250.81 79.108 1250.81 76.892 1252.12 75.5251C1253.43 74.1583 1255.55 74.1583 1256.86 75.5251L1265.25 84.2751C1266.56 85.642 1266.56 87.858 1265.25 89.2249L1256.86 97.9749C1255.55 99.3417 1253.43 99.3417 1252.12 97.9749Z" fill="white"/>
</svg>
